<mxfile host="app.diagrams.net" agent="Mozilla/5.0 (Windows NT 10.0; Win64; x64) AppleWebKit/537.36 (KHTML, like Gecko) Chrome/129.0.0.0 Safari/537.36 Edg/129.0.0.0" version="24.7.16">
  <diagram name="Página-1" id="Ga_N_vUK6HkKDC-7E33J">
    <mxGraphModel dx="1738" dy="473" grid="1" gridSize="10" guides="1" tooltips="1" connect="1" arrows="1" fold="1" page="1" pageScale="1" pageWidth="827" pageHeight="1169" math="0" shadow="0">
      <root>
        <mxCell id="0" />
        <mxCell id="1" parent="0" />
        <mxCell id="tASWixcG_87PR9iYvlI2-32" value="" style="rounded=1;whiteSpace=wrap;html=1;fillColor=#dae8fc;strokeColor=#6c8ebf;" parent="1" vertex="1">
          <mxGeometry x="-30" y="1400" width="1050" height="460" as="geometry" />
        </mxCell>
        <mxCell id="tASWixcG_87PR9iYvlI2-5" value="" style="shape=image;verticalLabelPosition=bottom;labelBackgroundColor=default;verticalAlign=top;aspect=fixed;imageAspect=0;image=https://upload.wikimedia.org/wikipedia/commons/thumb/2/2f/Priv_rings.svg/1280px-Priv_rings.svg.png;" parent="1" vertex="1">
          <mxGeometry x="380" y="280" width="1200" height="866" as="geometry" />
        </mxCell>
        <mxCell id="tASWixcG_87PR9iYvlI2-6" value="Root, processos do sistema&lt;div&gt;Gerenciador de tarefas&lt;/div&gt;" style="ellipse;whiteSpace=wrap;html=1;aspect=fixed;" parent="1" vertex="1">
          <mxGeometry x="750" y="710" width="100" height="100" as="geometry" />
        </mxCell>
        <mxCell id="tASWixcG_87PR9iYvlI2-7" value="Teclado&lt;div&gt;Mouse&lt;/div&gt;&lt;div&gt;Camera&lt;/div&gt;" style="ellipse;whiteSpace=wrap;html=1;" parent="1" vertex="1">
          <mxGeometry x="950" y="660" width="60" height="80" as="geometry" />
        </mxCell>
        <mxCell id="tASWixcG_87PR9iYvlI2-8" value="Teclado&lt;div&gt;Mouse&lt;/div&gt;&lt;div&gt;Camera&lt;/div&gt;" style="ellipse;whiteSpace=wrap;html=1;" parent="1" vertex="1">
          <mxGeometry x="1030" y="673" width="60" height="80" as="geometry" />
        </mxCell>
        <mxCell id="tASWixcG_87PR9iYvlI2-9" value="Todo o resto" style="ellipse;whiteSpace=wrap;html=1;" parent="1" vertex="1">
          <mxGeometry x="1110" y="683" width="60" height="80" as="geometry" />
        </mxCell>
        <mxCell id="tASWixcG_87PR9iYvlI2-10" value="" style="shape=flexArrow;endArrow=classic;html=1;rounded=0;" parent="1" target="tASWixcG_87PR9iYvlI2-11" edge="1">
          <mxGeometry width="50" height="50" relative="1" as="geometry">
            <mxPoint x="440" y="779.9972289156626" as="sourcePoint" />
            <mxPoint x="210" y="815.19" as="targetPoint" />
          </mxGeometry>
        </mxCell>
        <mxCell id="tASWixcG_87PR9iYvlI2-11" value="" style="ellipse;whiteSpace=wrap;html=1;aspect=fixed;fillColor=#dae8fc;strokeColor=#6c8ebf;" parent="1" vertex="1">
          <mxGeometry x="-25" y="720" width="374.81" height="374.81" as="geometry" />
        </mxCell>
        <mxCell id="tASWixcG_87PR9iYvlI2-12" value="&lt;font style=&quot;font-size: 27px;&quot;&gt;Docker&lt;/font&gt;" style="text;html=1;align=center;verticalAlign=middle;resizable=0;points=[];autosize=1;strokeColor=none;fillColor=none;" parent="1" vertex="1">
          <mxGeometry x="97.4" y="683" width="110" height="50" as="geometry" />
        </mxCell>
        <mxCell id="tASWixcG_87PR9iYvlI2-13" value="&lt;font style=&quot;font-size: 25px;&quot;&gt;Kernel&lt;/font&gt;" style="ellipse;whiteSpace=wrap;html=1;aspect=fixed;fillColor=#f8cecc;strokeColor=#b85450;" parent="1" vertex="1">
          <mxGeometry x="92.4" y="837.4" width="140" height="140" as="geometry" />
        </mxCell>
        <mxCell id="tASWixcG_87PR9iYvlI2-16" value="&lt;font style=&quot;font-size: 27px;&quot;&gt;APP&lt;/font&gt;" style="text;html=1;align=center;verticalAlign=middle;resizable=0;points=[];autosize=1;strokeColor=none;fillColor=none;" parent="1" vertex="1">
          <mxGeometry x="122.4" y="753" width="80" height="50" as="geometry" />
        </mxCell>
        <mxCell id="tASWixcG_87PR9iYvlI2-17" value="LIBs" style="rounded=0;whiteSpace=wrap;html=1;fillColor=#d5e8d4;strokeColor=#82b366;" parent="1" vertex="1">
          <mxGeometry x="40" y="810" width="120" height="60" as="geometry" />
        </mxCell>
        <mxCell id="tASWixcG_87PR9iYvlI2-18" value="Java" style="rounded=0;whiteSpace=wrap;html=1;fillColor=#d5e8d4;strokeColor=#82b366;" parent="1" vertex="1">
          <mxGeometry x="30" y="950" width="120" height="60" as="geometry" />
        </mxCell>
        <mxCell id="tASWixcG_87PR9iYvlI2-19" value="Maven" style="rounded=0;whiteSpace=wrap;html=1;fillColor=#d5e8d4;strokeColor=#82b366;" parent="1" vertex="1">
          <mxGeometry x="160" y="950" width="120" height="60" as="geometry" />
        </mxCell>
        <mxCell id="tASWixcG_87PR9iYvlI2-20" value="" style="rounded=0;whiteSpace=wrap;html=1;fillColor=#fff2cc;strokeColor=#d6b656;" parent="1" vertex="1">
          <mxGeometry x="70" y="1460" width="420" height="170" as="geometry" />
        </mxCell>
        <mxCell id="tASWixcG_87PR9iYvlI2-21" value="Maquina" style="text;html=1;align=center;verticalAlign=middle;resizable=0;points=[];autosize=1;strokeColor=none;fillColor=none;" parent="1" vertex="1">
          <mxGeometry x="240" y="1460" width="70" height="30" as="geometry" />
        </mxCell>
        <mxCell id="tASWixcG_87PR9iYvlI2-22" value="App1" style="rounded=0;whiteSpace=wrap;html=1;fillColor=#dae8fc;strokeColor=#6c8ebf;" parent="1" vertex="1">
          <mxGeometry x="112.4" y="1515" width="120" height="60" as="geometry" />
        </mxCell>
        <mxCell id="tASWixcG_87PR9iYvlI2-23" value="App2" style="rounded=0;whiteSpace=wrap;html=1;fillColor=#d5e8d4;strokeColor=#82b366;" parent="1" vertex="1">
          <mxGeometry x="320" y="1515" width="120" height="60" as="geometry" />
        </mxCell>
        <mxCell id="tASWixcG_87PR9iYvlI2-24" value="" style="rounded=0;whiteSpace=wrap;html=1;fillColor=#fff2cc;strokeColor=#d6b656;" parent="1" vertex="1">
          <mxGeometry x="70" y="1630" width="420" height="170" as="geometry" />
        </mxCell>
        <mxCell id="tASWixcG_87PR9iYvlI2-25" value="Maquina 2" style="text;html=1;align=center;verticalAlign=middle;resizable=0;points=[];autosize=1;strokeColor=none;fillColor=none;" parent="1" vertex="1">
          <mxGeometry x="235" y="1630" width="80" height="30" as="geometry" />
        </mxCell>
        <mxCell id="tASWixcG_87PR9iYvlI2-26" value="App3" style="rounded=0;whiteSpace=wrap;html=1;fillColor=#ffe6cc;strokeColor=#d79b00;" parent="1" vertex="1">
          <mxGeometry x="112.4" y="1685" width="120" height="60" as="geometry" />
        </mxCell>
        <mxCell id="tASWixcG_87PR9iYvlI2-27" value="App2" style="rounded=0;whiteSpace=wrap;html=1;fillColor=#d5e8d4;strokeColor=#82b366;" parent="1" vertex="1">
          <mxGeometry x="320" y="1685" width="120" height="60" as="geometry" />
        </mxCell>
        <mxCell id="tASWixcG_87PR9iYvlI2-28" value="" style="rounded=0;whiteSpace=wrap;html=1;fillColor=#fff2cc;strokeColor=#d6b656;" parent="1" vertex="1">
          <mxGeometry x="490" y="1570" width="420" height="170" as="geometry" />
        </mxCell>
        <mxCell id="tASWixcG_87PR9iYvlI2-29" value="Maquina4" style="text;html=1;align=center;verticalAlign=middle;resizable=0;points=[];autosize=1;strokeColor=none;fillColor=none;" parent="1" vertex="1">
          <mxGeometry x="655" y="1570" width="80" height="30" as="geometry" />
        </mxCell>
        <mxCell id="tASWixcG_87PR9iYvlI2-30" value="App1" style="rounded=0;whiteSpace=wrap;html=1;fillColor=#dae8fc;strokeColor=#6c8ebf;" parent="1" vertex="1">
          <mxGeometry x="530" y="1625" width="120" height="60" as="geometry" />
        </mxCell>
        <mxCell id="tASWixcG_87PR9iYvlI2-31" value="App4" style="rounded=0;whiteSpace=wrap;html=1;fillColor=#f8cecc;strokeColor=#b85450;" parent="1" vertex="1">
          <mxGeometry x="740" y="1625" width="120" height="60" as="geometry" />
        </mxCell>
        <mxCell id="tASWixcG_87PR9iYvlI2-34" style="edgeStyle=orthogonalEdgeStyle;rounded=0;orthogonalLoop=1;jettySize=auto;html=1;" parent="1" source="tASWixcG_87PR9iYvlI2-33" target="tASWixcG_87PR9iYvlI2-22" edge="1">
          <mxGeometry relative="1" as="geometry" />
        </mxCell>
        <mxCell id="tASWixcG_87PR9iYvlI2-35" style="edgeStyle=orthogonalEdgeStyle;rounded=0;orthogonalLoop=1;jettySize=auto;html=1;" parent="1" source="tASWixcG_87PR9iYvlI2-33" target="tASWixcG_87PR9iYvlI2-30" edge="1">
          <mxGeometry relative="1" as="geometry" />
        </mxCell>
        <mxCell id="tASWixcG_87PR9iYvlI2-36" style="edgeStyle=orthogonalEdgeStyle;rounded=0;orthogonalLoop=1;jettySize=auto;html=1;" parent="1" source="tASWixcG_87PR9iYvlI2-33" target="tASWixcG_87PR9iYvlI2-31" edge="1">
          <mxGeometry relative="1" as="geometry" />
        </mxCell>
        <mxCell id="tASWixcG_87PR9iYvlI2-33" value="Kubernets" style="text;html=1;align=center;verticalAlign=middle;resizable=0;points=[];autosize=1;fontSize=25;" parent="1" vertex="1">
          <mxGeometry x="560" y="1435" width="140" height="40" as="geometry" />
        </mxCell>
        <mxCell id="c6r29gQBBgGPX5nqPsZb-1" value="" style="shape=flexArrow;endArrow=classic;html=1;rounded=0;" edge="1" parent="1">
          <mxGeometry width="50" height="50" relative="1" as="geometry">
            <mxPoint x="2330" y="740" as="sourcePoint" />
            <mxPoint x="3250" y="740" as="targetPoint" />
          </mxGeometry>
        </mxCell>
        <mxCell id="c6r29gQBBgGPX5nqPsZb-2" value="&lt;font style=&quot;font-size: 20px;&quot;&gt;Ponto onde o Bug é encontrado&lt;/font&gt;" style="text;html=1;align=center;verticalAlign=middle;resizable=0;points=[];autosize=1;strokeColor=none;fillColor=none;" vertex="1" parent="1">
          <mxGeometry x="2550" y="300" width="310" height="40" as="geometry" />
        </mxCell>
        <mxCell id="c6r29gQBBgGPX5nqPsZb-3" value="" style="shape=flexArrow;endArrow=classic;html=1;rounded=0;" edge="1" parent="1">
          <mxGeometry width="50" height="50" relative="1" as="geometry">
            <mxPoint x="2331.9" y="743" as="sourcePoint" />
            <mxPoint x="2329.995238095238" y="323" as="targetPoint" />
          </mxGeometry>
        </mxCell>
        <mxCell id="c6r29gQBBgGPX5nqPsZb-4" value="&lt;font style=&quot;font-size: 20px;&quot;&gt;Custo&lt;/font&gt;" style="text;html=1;align=center;verticalAlign=middle;resizable=0;points=[];autosize=1;strokeColor=none;fillColor=none;" vertex="1" parent="1">
          <mxGeometry x="2240" y="493" width="80" height="40" as="geometry" />
        </mxCell>
        <mxCell id="c6r29gQBBgGPX5nqPsZb-6" value="&lt;font style=&quot;font-size: 20px;&quot;&gt;Tempo&lt;/font&gt;" style="text;html=1;align=center;verticalAlign=middle;resizable=0;points=[];autosize=1;strokeColor=none;fillColor=none;" vertex="1" parent="1">
          <mxGeometry x="3280" y="713" width="80" height="40" as="geometry" />
        </mxCell>
        <mxCell id="c6r29gQBBgGPX5nqPsZb-14" value="Local&lt;div&gt;Desenvolimento&lt;/div&gt;" style="rounded=0;whiteSpace=wrap;html=1;fillColor=#dae8fc;strokeColor=#6c8ebf;" vertex="1" parent="1">
          <mxGeometry x="2540" y="642" width="120" height="98" as="geometry" />
        </mxCell>
        <mxCell id="c6r29gQBBgGPX5nqPsZb-15" value="Ambiente de QA ou Desenvolvimento" style="rounded=0;whiteSpace=wrap;html=1;fillColor=#fff2cc;strokeColor=#d6b656;" vertex="1" parent="1">
          <mxGeometry x="2690" y="600" width="120" height="140" as="geometry" />
        </mxCell>
        <mxCell id="c6r29gQBBgGPX5nqPsZb-16" value="Homologação e testes de negócio" style="rounded=0;whiteSpace=wrap;html=1;fillColor=#ffe6cc;strokeColor=#d79b00;" vertex="1" parent="1">
          <mxGeometry x="2850" y="530" width="120" height="210" as="geometry" />
        </mxCell>
        <mxCell id="c6r29gQBBgGPX5nqPsZb-17" value="Produção&lt;div&gt;&lt;br&gt;&lt;/div&gt;&lt;div&gt;Impacta o Cliente e a entrada de Recursos na empresa&lt;/div&gt;" style="rounded=0;whiteSpace=wrap;html=1;fillColor=#f8cecc;strokeColor=#b85450;" vertex="1" parent="1">
          <mxGeometry x="3010" y="350" width="120" height="390" as="geometry" />
        </mxCell>
        <mxCell id="c6r29gQBBgGPX5nqPsZb-18" value="Definições e Refinamento" style="rounded=0;whiteSpace=wrap;html=1;fillColor=#d5e8d4;strokeColor=#82b366;" vertex="1" parent="1">
          <mxGeometry x="2390" y="670" width="120" height="70" as="geometry" />
        </mxCell>
        <mxCell id="c6r29gQBBgGPX5nqPsZb-20" value="Ambiente de Dev" style="rounded=1;whiteSpace=wrap;html=1;" vertex="1" parent="1">
          <mxGeometry x="2690" y="763" width="120" height="60" as="geometry" />
        </mxCell>
        <mxCell id="c6r29gQBBgGPX5nqPsZb-21" value="Ambiente de Homol" style="rounded=1;whiteSpace=wrap;html=1;" vertex="1" parent="1">
          <mxGeometry x="2850" y="763" width="120" height="60" as="geometry" />
        </mxCell>
        <mxCell id="c6r29gQBBgGPX5nqPsZb-22" value="Prod" style="rounded=1;whiteSpace=wrap;html=1;" vertex="1" parent="1">
          <mxGeometry x="3020" y="763" width="120" height="60" as="geometry" />
        </mxCell>
        <mxCell id="c6r29gQBBgGPX5nqPsZb-25" style="edgeStyle=orthogonalEdgeStyle;rounded=0;orthogonalLoop=1;jettySize=auto;html=1;" edge="1" parent="1" source="c6r29gQBBgGPX5nqPsZb-23" target="c6r29gQBBgGPX5nqPsZb-24">
          <mxGeometry relative="1" as="geometry" />
        </mxCell>
        <mxCell id="c6r29gQBBgGPX5nqPsZb-23" value="Refinamento do Projeto" style="rounded=0;whiteSpace=wrap;html=1;" vertex="1" parent="1">
          <mxGeometry x="2590" y="1169" width="120" height="60" as="geometry" />
        </mxCell>
        <mxCell id="c6r29gQBBgGPX5nqPsZb-24" value="Desenvolvimento de Código e Testes" style="rounded=0;whiteSpace=wrap;html=1;" vertex="1" parent="1">
          <mxGeometry x="2760" y="1169" width="120" height="60" as="geometry" />
        </mxCell>
        <mxCell id="c6r29gQBBgGPX5nqPsZb-29" style="edgeStyle=orthogonalEdgeStyle;rounded=0;orthogonalLoop=1;jettySize=auto;html=1;entryX=0;entryY=0.5;entryDx=0;entryDy=0;" edge="1" parent="1" target="c6r29gQBBgGPX5nqPsZb-28">
          <mxGeometry relative="1" as="geometry">
            <mxPoint x="2880" y="1199" as="sourcePoint" />
          </mxGeometry>
        </mxCell>
        <mxCell id="c6r29gQBBgGPX5nqPsZb-31" style="edgeStyle=orthogonalEdgeStyle;rounded=0;orthogonalLoop=1;jettySize=auto;html=1;" edge="1" parent="1" source="c6r29gQBBgGPX5nqPsZb-28" target="c6r29gQBBgGPX5nqPsZb-30">
          <mxGeometry relative="1" as="geometry" />
        </mxCell>
        <mxCell id="c6r29gQBBgGPX5nqPsZb-28" value="CI" style="rounded=0;whiteSpace=wrap;html=1;" vertex="1" parent="1">
          <mxGeometry x="2950" y="1169" width="120" height="60" as="geometry" />
        </mxCell>
        <mxCell id="c6r29gQBBgGPX5nqPsZb-33" style="edgeStyle=orthogonalEdgeStyle;rounded=0;orthogonalLoop=1;jettySize=auto;html=1;" edge="1" parent="1" source="c6r29gQBBgGPX5nqPsZb-30" target="c6r29gQBBgGPX5nqPsZb-32">
          <mxGeometry relative="1" as="geometry" />
        </mxCell>
        <mxCell id="c6r29gQBBgGPX5nqPsZb-34" value="" style="edgeStyle=orthogonalEdgeStyle;rounded=0;orthogonalLoop=1;jettySize=auto;html=1;" edge="1" parent="1" source="c6r29gQBBgGPX5nqPsZb-30" target="c6r29gQBBgGPX5nqPsZb-32">
          <mxGeometry relative="1" as="geometry" />
        </mxCell>
        <mxCell id="c6r29gQBBgGPX5nqPsZb-35" value="" style="edgeStyle=orthogonalEdgeStyle;rounded=0;orthogonalLoop=1;jettySize=auto;html=1;" edge="1" parent="1" source="c6r29gQBBgGPX5nqPsZb-30" target="c6r29gQBBgGPX5nqPsZb-32">
          <mxGeometry relative="1" as="geometry" />
        </mxCell>
        <mxCell id="c6r29gQBBgGPX5nqPsZb-37" style="edgeStyle=orthogonalEdgeStyle;rounded=0;orthogonalLoop=1;jettySize=auto;html=1;" edge="1" parent="1" source="c6r29gQBBgGPX5nqPsZb-30" target="c6r29gQBBgGPX5nqPsZb-36">
          <mxGeometry relative="1" as="geometry" />
        </mxCell>
        <mxCell id="c6r29gQBBgGPX5nqPsZb-39" style="edgeStyle=orthogonalEdgeStyle;rounded=0;orthogonalLoop=1;jettySize=auto;html=1;" edge="1" parent="1" source="c6r29gQBBgGPX5nqPsZb-30" target="c6r29gQBBgGPX5nqPsZb-38">
          <mxGeometry relative="1" as="geometry" />
        </mxCell>
        <mxCell id="c6r29gQBBgGPX5nqPsZb-30" value="CD automatico" style="rounded=0;whiteSpace=wrap;html=1;" vertex="1" parent="1">
          <mxGeometry x="3150" y="1169" width="120" height="60" as="geometry" />
        </mxCell>
        <mxCell id="c6r29gQBBgGPX5nqPsZb-32" value="Dev" style="rounded=0;whiteSpace=wrap;html=1;" vertex="1" parent="1">
          <mxGeometry x="3050" y="1290" width="120" height="60" as="geometry" />
        </mxCell>
        <mxCell id="c6r29gQBBgGPX5nqPsZb-36" value="Hom" style="rounded=0;whiteSpace=wrap;html=1;" vertex="1" parent="1">
          <mxGeometry x="3230" y="1290" width="120" height="60" as="geometry" />
        </mxCell>
        <mxCell id="c6r29gQBBgGPX5nqPsZb-41" style="edgeStyle=orthogonalEdgeStyle;rounded=0;orthogonalLoop=1;jettySize=auto;html=1;" edge="1" parent="1" source="c6r29gQBBgGPX5nqPsZb-38" target="c6r29gQBBgGPX5nqPsZb-40">
          <mxGeometry relative="1" as="geometry" />
        </mxCell>
        <mxCell id="c6r29gQBBgGPX5nqPsZb-38" value="CD Manual,&lt;div&gt;permissão de subida manual&lt;/div&gt;" style="rounded=0;whiteSpace=wrap;html=1;" vertex="1" parent="1">
          <mxGeometry x="3340" y="1169" width="120" height="60" as="geometry" />
        </mxCell>
        <mxCell id="c6r29gQBBgGPX5nqPsZb-40" value="Prod" style="rounded=0;whiteSpace=wrap;html=1;" vertex="1" parent="1">
          <mxGeometry x="3530" y="1169" width="120" height="60" as="geometry" />
        </mxCell>
        <mxCell id="c6r29gQBBgGPX5nqPsZb-44" style="edgeStyle=orthogonalEdgeStyle;rounded=0;orthogonalLoop=1;jettySize=auto;html=1;entryX=0.5;entryY=1;entryDx=0;entryDy=0;" edge="1" parent="1" source="c6r29gQBBgGPX5nqPsZb-43" target="c6r29gQBBgGPX5nqPsZb-32">
          <mxGeometry relative="1" as="geometry" />
        </mxCell>
        <mxCell id="c6r29gQBBgGPX5nqPsZb-45" style="edgeStyle=orthogonalEdgeStyle;rounded=0;orthogonalLoop=1;jettySize=auto;html=1;" edge="1" parent="1" source="c6r29gQBBgGPX5nqPsZb-43" target="c6r29gQBBgGPX5nqPsZb-36">
          <mxGeometry relative="1" as="geometry" />
        </mxCell>
        <mxCell id="c6r29gQBBgGPX5nqPsZb-43" value="Testes Automatizados e Manuais" style="rounded=0;whiteSpace=wrap;html=1;" vertex="1" parent="1">
          <mxGeometry x="3150" y="1400" width="120" height="60" as="geometry" />
        </mxCell>
      </root>
    </mxGraphModel>
  </diagram>
</mxfile>
